<?xml version="1.0" encoding="UTF-8"?>
<svg width="800" height="300" viewBox="0 0 800 300" xmlns="http://www.w3.org/2000/svg">
  <defs>
    <!-- Gradients -->
    <linearGradient id="graphGradient" x1="0%" y1="0%" x2="0%" y2="100%">
      <stop offset="0%" stop-color="#00F5FF" stop-opacity="0.5"/>
      <stop offset="100%" stop-color="#00F5FF" stop-opacity="0"/>
    </linearGradient>
    
    <linearGradient id="lineGradient" x1="0%" y1="0%" x2="100%" y2="0%">
      <stop offset="0%" stop-color="#772CE8"/>
      <stop offset="100%" stop-color="#00F5FF"/>
    </linearGradient>
    
    <filter id="glow" x="-20%" y="-20%" width="140%" height="140%">
      <feGaussianBlur stdDeviation="5" result="blur"/>
      <feComposite in="SourceGraphic" in2="blur" operator="over"/>
    </filter>
  </defs>
  
  <!-- Background grid -->
  <g opacity="0.1">
    <path d="M0 50 H800 M0 100 H800 M0 150 H800 M0 200 H800 M0 250 H800" stroke="#00F5FF" stroke-width="1"/>
    <path d="M100 0 V300 M200 0 V300 M300 0 V300 M400 0 V300 M500 0 V300 M600 0 V300 M700 0 V300" stroke="#00F5FF" stroke-width="1"/>
  </g>
  
  <!-- Financial data icons -->
  <g transform="translate(50, 50)">
    <!-- Currency symbols -->
    <text x="0" y="0" font-family="Arial, sans-serif" font-size="20" fill="#00F5FF">$</text>
    <text x="30" y="30" font-family="Arial, sans-serif" font-size="20" fill="#772CE8">€</text>
    <text x="60" y="0" font-family="Arial, sans-serif" font-size="20" fill="#00F5FF">£</text>
    <text x="90" y="30" font-family="Arial, sans-serif" font-size="20" fill="#772CE8">¥</text>
    
    <animateTransform 
      attributeName="transform"
      type="translate"
      from="50, 50"
      to="50, 55"
      dur="3s"
      repeatCount="indefinite"
      additive="sum"
      calcMode="spline"
      keySplines="0.4 0 0.2 1; 0.4 0 0.2 1"
      values="50, 50; 50, 55; 50, 50"
    />
  </g>
  
  <!-- Financial graph -->
  <g transform="translate(150, 50)">
    <!-- Stock chart line -->
    <path d="M0,150 L100,120 L200,160 L300,90 L400,130 L500,50" 
          fill="none" 
          stroke="url(#lineGradient)" 
          stroke-width="3" 
          stroke-linecap="round" 
          filter="url(#glow)"/>
    
    <!-- Area under the line -->
    <path d="M0,150 L100,120 L200,160 L300,90 L400,130 L500,50 L500,220 L0,220 Z" 
          fill="url(#graphGradient)" 
          opacity="0.5"/>
    
    <!-- Data points -->
    <circle cx="0" cy="150" r="6" fill="#00F5FF"/>
    <circle cx="100" cy="120" r="6" fill="#00F5FF"/>
    <circle cx="200" cy="160" r="6" fill="#00F5FF"/>
    <circle cx="300" cy="90" r="6" fill="#00F5FF"/>
    <circle cx="400" cy="130" r="6" fill="#00F5FF"/>
    <circle cx="500" cy="50" r="6" fill="#00F5FF"/>
    
    <!-- Animated data point -->
    <circle cx="500" cy="50" r="8" fill="none" stroke="#772CE8" stroke-width="2">
      <animate attributeName="r" values="8;12;8" dur="2s" repeatCount="indefinite"/>
      <animate attributeName="opacity" values="1;0.6;1" dur="2s" repeatCount="indefinite"/>
    </circle>
  </g>
  
  <!-- Financial icons -->
  <g transform="translate(680, 150)">
    <!-- Bank building icon -->
    <g fill="none" stroke="#772CE8" stroke-width="2">
      <rect x="-30" y="-20" width="60" height="40" rx="2"/>
      <line x1="-20" y1="-20" x2="-20" y2="-30"/>
      <line x1="0" y1="-20" x2="0" y2="-30"/>
      <line x1="20" y1="-20" x2="20" y2="-30"/>
      <line x1="-30" y1="20" x2="30" y2="20"/>
    </g>
    
    <animateTransform 
      attributeName="transform"
      type="translate"
      from="680, 150"
      to="680, 155"
      dur="4s"
      repeatCount="indefinite"
      additive="sum"
      calcMode="spline"
      keySplines="0.4 0 0.2 1; 0.4 0 0.2 1"
      values="680, 150; 680, 155; 680, 150"
    />
  </g>
  
  <!-- Data flow lines -->
  <g>
    <path d="M130,200 C200,230 300,180 400,210 C500,240 600,190 700,220" 
          fill="none" 
          stroke="#00F5FF" 
          stroke-width="2" 
          stroke-linecap="round" 
          stroke-dasharray="5,5">
      <animate attributeName="stroke-dashoffset" from="0" to="100" dur="5s" repeatCount="indefinite"/>
    </path>
    
    <path d="M130,230 C200,200 300,250 400,220 C500,190 600,240 700,210" 
          fill="none" 
          stroke="#772CE8" 
          stroke-width="2" 
          stroke-linecap="round" 
          stroke-dasharray="5,5">
      <animate attributeName="stroke-dashoffset" from="0" to="-100" dur="7s" repeatCount="indefinite"/>
    </path>
  </g>
  
  <!-- Financial data elements -->
  <g transform="translate(400, 250)">
    <!-- Pie chart -->
    <path d="M0 0 L0 -30 A30 30 0 0 1 26 -15 Z" fill="#00F5FF" opacity="0.8"/>
    <path d="M0 0 L26 -15 A30 30 0 0 1 26 15 Z" fill="#772CE8" opacity="0.8"/>
    <path d="M0 0 L26 15 A30 30 0 0 1 0 30 Z" fill="#FF9100" opacity="0.8"/>
    <path d="M0 0 L0 30 A30 30 0 0 1 -30 0 Z" fill="#00F5FF" opacity="0.8"/>
    <path d="M0 0 L-30 0 A30 30 0 0 1 0 -30 Z" fill="#772CE8" opacity="0.8"/>
    
    <animateTransform 
      attributeName="transform"
      type="rotate"
      from="0 400 250"
      to="360 400 250"
      dur="20s"
      repeatCount="indefinite"
      additive="sum"
    />
  </g>
  
  <!-- Financial data pulse -->
  <g>
    <circle cx="150" cy="200" r="5" fill="#00F5FF">
      <animate attributeName="cx" values="150;700" dur="3s" repeatCount="indefinite"/>
      <animate attributeName="opacity" values="1;0" dur="3s" repeatCount="indefinite"/>
    </circle>
    
    <circle cx="700" cy="230" r="5" fill="#772CE8">
      <animate attributeName="cx" values="700;150" dur="3s" repeatCount="indefinite"/>
      <animate attributeName="opacity" values="1;0" dur="3s" repeatCount="indefinite"/>
    </circle>
  </g>
</svg>