<?xml version="1.0" encoding="UTF-8"?>
<svg width="800" height="300" viewBox="0 0 800 300" xmlns="http://www.w3.org/2000/svg">
  <defs>
    <!-- Gradients -->
    <linearGradient id="eduGradient" x1="0%" y1="0%" x2="100%" y2="100%">
      <stop offset="0%" stop-color="#00F5FF" stop-opacity="0.8"/>
      <stop offset="100%" stop-color="#772CE8" stop-opacity="0.8"/>
    </linearGradient>
    
    <linearGradient id="bookGradient" x1="0%" y1="0%" x2="100%" y2="0%">
      <stop offset="0%" stop-color="#772CE8" stop-opacity="0.8"/>
      <stop offset="100%" stop-color="#00F5FF" stop-opacity="0.8"/>
    </linearGradient>
    
    <filter id="glow" x="-20%" y="-20%" width="140%" height="140%">
      <feGaussianBlur stdDeviation="5" result="blur"/>
      <feComposite in="SourceGraphic" in2="blur" operator="over"/>
    </filter>
  </defs>
  
  <!-- Background grid -->
  <g opacity="0.1">
    <path d="M0 50 H800 M0 100 H800 M0 150 H800 M0 200 H800 M0 250 H800" stroke="#00F5FF" stroke-width="1"/>
    <path d="M100 0 V300 M200 0 V300 M300 0 V300 M400 0 V300 M500 0 V300 M600 0 V300 M700 0 V300" stroke="#00F5FF" stroke-width="1"/>
  </g>
  
  <!-- Education growth chart -->
  <g transform="translate(100, 200)">
    <!-- Axes -->
    <line x1="0" y1="0" x2="600" y2="0" stroke="#FFFFFF" stroke-width="2"/>
    <line x1="0" y1="0" x2="0" y2="-150" stroke="#FFFFFF" stroke-width="2"/>
    
    <!-- Growth bar chart -->
    <rect x="50" y="-60" width="40" height="60" rx="3" fill="#00F5FF" opacity="0.7">
      <animate attributeName="height" from="0" to="60" dur="1s" begin="0.1s" fill="freeze"/>
      <animate attributeName="y" from="0" to="-60" dur="1s" begin="0.1s" fill="freeze"/>
    </rect>
    
    <rect x="150" y="-90" width="40" height="90" rx="3" fill="#772CE8" opacity="0.7">
      <animate attributeName="height" from="0" to="90" dur="1s" begin="0.3s" fill="freeze"/>
      <animate attributeName="y" from="0" to="-90" dur="1s" begin="0.3s" fill="freeze"/>
    </rect>
    
    <rect x="250" y="-120" width="40" height="120" rx="3" fill="#00F5FF" opacity="0.7">
      <animate attributeName="height" from="0" to="120" dur="1s" begin="0.5s" fill="freeze"/>
      <animate attributeName="y" from="0" to="-120" dur="1s" begin="0.5s" fill="freeze"/>
    </rect>
    
    <rect x="350" y="-70" width="40" height="70" rx="3" fill="#772CE8" opacity="0.7">
      <animate attributeName="height" from="0" to="70" dur="1s" begin="0.7s" fill="freeze"/>
      <animate attributeName="y" from="0" to="-70" dur="1s" begin="0.7s" fill="freeze"/>
    </rect>
    
    <rect x="450" y="-140" width="40" height="140" rx="3" fill="#00F5FF" opacity="0.7">
      <animate attributeName="height" from="0" to="140" dur="1s" begin="0.9s" fill="freeze"/>
      <animate attributeName="y" from="0" to="-140" dur="1s" begin="0.9s" fill="freeze"/>
    </rect>
    
    <!-- Labels -->
    <text x="70" y="15" font-family="Arial, sans-serif" font-size="12" fill="#FFFFFF" text-anchor="middle">K-12</text>
    <text x="170" y="15" font-family="Arial, sans-serif" font-size="12" fill="#FFFFFF" text-anchor="middle">College</text>
    <text x="270" y="15" font-family="Arial, sans-serif" font-size="12" fill="#FFFFFF" text-anchor="middle">University</text>
    <text x="370" y="15" font-family="Arial, sans-serif" font-size="12" fill="#FFFFFF" text-anchor="middle">Corporate</text>
    <text x="470" y="15" font-family="Arial, sans-serif" font-size="12" fill="#FFFFFF" text-anchor="middle">EdTech</text>
  </g>
  
  <!-- Education icons -->
  <g transform="translate(700, 80)">
    <!-- Graduation cap -->
    <g fill="none" stroke="#00F5FF" stroke-width="2">
      <path d="M-25,0 L0,-15 L25,0 L0,15 Z"/>
      <line x1="10" y1="3" x2="10" y2="20"/>
      <path d="M-15,5 L-15,15 L15,15 L15,5"/>
    </g>
    
    <animateTransform 
      attributeName="transform"
      type="translate"
      from="700, 80"
      to="700, 85"
      dur="3s"
      repeatCount="indefinite"
      additive="sum"
      calcMode="spline"
      keySplines="0.4 0 0.2 1; 0.4 0 0.2 1"
      values="700, 80; 700, 85; 700, 80"
    />
  </g>
  
  <!-- Book icon -->
  <g transform="translate(60, 60)">
    <g fill="none" stroke="url(#bookGradient)" stroke-width="2">
      <path d="M-20,-15 L20,-15 L20,15 L-20,15 Z"/>
      <path d="M0,-15 L0,15"/>
      <path d="M-15,-10 L-5,-10"/>
      <path d="M-15,-5 L-5,-5"/>
      <path d="M-15,0 L-5,0"/>
      <path d="M5,-10 L15,-10"/>
      <path d="M5,-5 L15,-5"/>
      <path d="M5,0 L15,0"/>
    </g>
    
    <animateTransform 
      attributeName="transform"
      type="translate"
      from="60, 60"
      to="60, 65"
      dur="4s"
      repeatCount="indefinite"
      additive="sum"
      calcMode="spline"
      keySplines="0.4 0 0.2 1; 0.4 0 0.2 1"
      values="60, 60; 60, 65; 60, 60"
    />
  </g>
  
  <!-- Education data connections -->
  <g>
    <!-- Knowledge network -->
    <g transform="translate(400, 70)">
      <!-- Network nodes -->
      <circle cx="-60" cy="-20" r="8" fill="#00F5FF" opacity="0.8"/>
      <circle cx="0" cy="0" r="12" fill="#772CE8" opacity="0.8"/>
      <circle cx="60" cy="-20" r="8" fill="#00F5FF" opacity="0.8"/>
      <circle cx="-40" cy="40" r="8" fill="#00F5FF" opacity="0.8"/>
      <circle cx="40" cy="40" r="8" fill="#00F5FF" opacity="0.8"/>
      
      <!-- Network connections -->
      <line x1="-60" y1="-20" x2="0" y2="0" stroke="#00F5FF" stroke-width="1.5" opacity="0.6"/>
      <line x1="60" y1="-20" x2="0" y2="0" stroke="#00F5FF" stroke-width="1.5" opacity="0.6"/>
      <line x1="-40" y1="40" x2="0" y2="0" stroke="#00F5FF" stroke-width="1.5" opacity="0.6"/>
      <line x1="40" y1="40" x2="0" y2="0" stroke="#00F5FF" stroke-width="1.5" opacity="0.6"/>
      <line x1="-60" y1="-20" x2="60" y2="-20" stroke="#00F5FF" stroke-width="1.5" opacity="0.3"/>
      <line x1="-40" y1="40" x2="40" y2="40" stroke="#00F5FF" stroke-width="1.5" opacity="0.3"/>
      <line x1="-60" y1="-20" x2="-40" y2="40" stroke="#00F5FF" stroke-width="1.5" opacity="0.3"/>
      <line x1="60" y1="-20" x2="40" y2="40" stroke="#00F5FF" stroke-width="1.5" opacity="0.3"/>
      
      <!-- Pulse animation on the central node -->
      <circle cx="0" cy="0" r="12" fill="none" stroke="#772CE8" stroke-width="2">
        <animate attributeName="r" values="12;20;12" dur="2s" repeatCount="indefinite"/>
        <animate attributeName="opacity" values="1;0;1" dur="2s" repeatCount="indefinite"/>
      </circle>
    </g>
  </g>
  
  <!-- Data flow paths -->
  <g>
    <path d="M150,250 C250,270 350,230 450,260 C550,290 650,240 750,270" 
          fill="none" 
          stroke="#00F5FF" 
          stroke-width="2" 
          stroke-linecap="round" 
          stroke-dasharray="5,5">
      <animate attributeName="stroke-dashoffset" from="0" to="100" dur="5s" repeatCount="indefinite"/>
    </path>
    
    <path d="M150,270 C250,250 350,290 450,250 C550,220 650,270 750,240" 
          fill="none" 
          stroke="#772CE8" 
          stroke-width="2" 
          stroke-linecap="round" 
          stroke-dasharray="5,5">
      <animate attributeName="stroke-dashoffset" from="0" to="-100" dur="7s" repeatCount="indefinite"/>
    </path>
  </g>
  
  <!-- Education data pulse -->
  <g>
    <circle cx="150" cy="250" r="5" fill="#00F5FF">
      <animate attributeName="cx" values="150;750" dur="3s" repeatCount="indefinite"/>
      <animate attributeName="opacity" values="1;0" dur="3s" repeatCount="indefinite"/>
    </circle>
    
    <circle cx="750" cy="270" r="5" fill="#772CE8">
      <animate attributeName="cx" values="750;150" dur="3s" repeatCount="indefinite"/>
      <animate attributeName="opacity" values="1;0" dur="3s" repeatCount="indefinite"/>
    </circle>
  </g>
  
  <!-- Education metrics symbols -->
  <g transform="translate(220, 120)">
    <text x="0" y="0" font-family="Arial, sans-serif" font-size="14" fill="#00F5FF">e-Learning</text>
    <text x="100" y="0" font-family="Arial, sans-serif" font-size="14" fill="#772CE8">Digital Classroom</text>
    <text x="50" y="25" font-family="Arial, sans-serif" font-size="14" fill="#00F5FF">Learning Analytics</text>
    
    <animateTransform 
      attributeName="transform"
      type="translate"
      from="220, 120"
      to="220, 125"
      dur="5s"
      repeatCount="indefinite"
      additive="sum"
      calcMode="spline"
      keySplines="0.4 0 0.2 1; 0.4 0 0.2 1"
      values="220, 120; 220, 125; 220, 120"
    />
  </g>
</svg>