<?xml version="1.0" encoding="UTF-8"?>
<svg width="800" height="500" viewBox="0 0 800 500" xmlns="http://www.w3.org/2000/svg">
  <defs>
    <!-- Gradients -->
    <linearGradient id="dbGradient" x1="0%" y1="0%" x2="100%" y2="100%">
      <stop offset="0%" stop-color="#00F5FF" stop-opacity="0.8"/>
      <stop offset="100%" stop-color="#772CE8" stop-opacity="0.8"/>
    </linearGradient>
    
    <linearGradient id="serverGradient" x1="0%" y1="0%" x2="100%" y2="100%">
      <stop offset="0%" stop-color="#772CE8" stop-opacity="0.7"/>
      <stop offset="100%" stop-color="#00F5FF" stop-opacity="0.7"/>
    </linearGradient>
    
    <filter id="glow" x="-20%" y="-20%" width="140%" height="140%">
      <feGaussianBlur stdDeviation="5" result="blur"/>
      <feComposite in="SourceGraphic" in2="blur" operator="over"/>
    </filter>
  </defs>
  
  <!-- Background grid pattern -->
  <g opacity="0.1">
    <path d="M0 50 H800 M0 100 H800 M0 150 H800 M0 200 H800 M0 250 H800 M0 300 H800 M0 350 H800 M0 400 H800 M0 450 H800" stroke="#00F5FF" stroke-width="1"/>
    <path d="M50 0 V500 M100 0 V500 M150 0 V500 M200 0 V500 M250 0 V500 M300 0 V500 M350 0 V500 M400 0 V500 M450 0 V500 M500 0 V500 M550 0 V500 M600 0 V500 M650 0 V500 M700 0 V500 M750 0 V500" stroke="#00F5FF" stroke-width="1"/>
  </g>
  
  <!-- Database server -->
  <g transform="translate(400, 250)">
    <!-- Server rack -->
    <rect x="-100" y="-150" width="200" height="300" rx="10" ry="10" fill="url(#serverGradient)" stroke="#00F5FF" stroke-width="2" filter="url(#glow)"/>
    
    <!-- Server components -->
    <rect x="-80" y="-130" width="160" height="40" rx="5" ry="5" fill="#151824" stroke="#00F5FF" stroke-width="1"/>
    <rect x="-80" y="-80" width="160" height="40" rx="5" ry="5" fill="#151824" stroke="#00F5FF" stroke-width="1"/>
    <rect x="-80" y="-30" width="160" height="40" rx="5" ry="5" fill="#151824" stroke="#00F5FF" stroke-width="1"/>
    <rect x="-80" y="20" width="160" height="40" rx="5" ry="5" fill="#151824" stroke="#00F5FF" stroke-width="1"/>
    <rect x="-80" y="70" width="160" height="40" rx="5" ry="5" fill="#151824" stroke="#00F5FF" stroke-width="1"/>
    <rect x="-80" y="120" width="160" height="40" rx="5" ry="5" fill="#151824" stroke="#00F5FF" stroke-width="1"/>
    
    <!-- Server indicator lights -->
    <circle cx="-60" cy="-110" r="5" fill="#00F5FF">
      <animate attributeName="opacity" values="0.5;1;0.5" dur="1.5s" repeatCount="indefinite"/>
    </circle>
    <circle cx="-60" cy="-60" r="5" fill="#00F5FF">
      <animate attributeName="opacity" values="0.5;1;0.5" dur="2s" repeatCount="indefinite"/>
    </circle>
    <circle cx="-60" cy="-10" r="5" fill="#00F5FF">
      <animate attributeName="opacity" values="0.5;1;0.5" dur="1.8s" repeatCount="indefinite"/>
    </circle>
    <circle cx="-60" cy="40" r="5" fill="#00F5FF">
      <animate attributeName="opacity" values="0.5;1;0.5" dur="1.2s" repeatCount="indefinite"/>
    </circle>
    <circle cx="-60" cy="90" r="5" fill="#00F5FF">
      <animate attributeName="opacity" values="0.5;1;0.5" dur="1.7s" repeatCount="indefinite"/>
    </circle>
    <circle cx="-60" cy="140" r="5" fill="#00F5FF">
      <animate attributeName="opacity" values="0.5;1;0.5" dur="1.3s" repeatCount="indefinite"/>
    </circle>
  </g>
  
  <!-- Data flow illustrations -->
  <g>
    <!-- Input data flow - left side -->
    <path d="M100,150 C150,150 150,210 200,210" fill="none" stroke="#00F5FF" stroke-width="2" stroke-dasharray="5,5">
      <animate attributeName="stroke-dashoffset" from="0" to="20" dur="2s" repeatCount="indefinite"/>
    </path>
    
    <path d="M200,210 L250,210" fill="none" stroke="#00F5FF" stroke-width="2"/>
    
    <path d="M100,250 C150,250 150,230 200,230" fill="none" stroke="#00F5FF" stroke-width="2" stroke-dasharray="5,5">
      <animate attributeName="stroke-dashoffset" from="0" to="20" dur="2s" repeatCount="indefinite"/>
    </path>
    
    <path d="M200,230 L250,230" fill="none" stroke="#00F5FF" stroke-width="2"/>
    
    <path d="M100,350 C150,350 150,250 200,250" fill="none" stroke="#00F5FF" stroke-width="2" stroke-dasharray="5,5">
      <animate attributeName="stroke-dashoffset" from="0" to="20" dur="2s" repeatCount="indefinite"/>
    </path>
    
    <path d="M200,250 L250,250" fill="none" stroke="#00F5FF" stroke-width="2"/>
    
    <!-- Output data flow - right side -->
    <path d="M550,210 L600,210" fill="none" stroke="#772CE8" stroke-width="2"/>
    
    <path d="M600,210 C650,210 650,150 700,150" fill="none" stroke="#772CE8" stroke-width="2" stroke-dasharray="5,5">
      <animate attributeName="stroke-dashoffset" from="0" to="-20" dur="2s" repeatCount="indefinite"/>
    </path>
    
    <path d="M550,230 L600,230" fill="none" stroke="#772CE8" stroke-width="2"/>
    
    <path d="M600,230 C650,230 650,250 700,250" fill="none" stroke="#772CE8" stroke-width="2" stroke-dasharray="5,5">
      <animate attributeName="stroke-dashoffset" from="0" to="-20" dur="2s" repeatCount="indefinite"/>
    </path>
    
    <path d="M550,250 L600,250" fill="none" stroke="#772CE8" stroke-width="2"/>
    
    <path d="M600,250 C650,250 650,350 700,350" fill="none" stroke="#772CE8" stroke-width="2" stroke-dasharray="5,5">
      <animate attributeName="stroke-dashoffset" from="0" to="-20" dur="2s" repeatCount="indefinite"/>
    </path>
    
    <!-- Connection to server -->
    <path d="M250,230 L300,230" fill="none" stroke="#00F5FF" stroke-width="2"/>
    <path d="M550,230 L500,230" fill="none" stroke="#772CE8" stroke-width="2"/>
  </g>
  
  <!-- Input data source icons -->
  <g transform="translate(80, 150)">
    <rect x="-20" y="-20" width="40" height="40" rx="5" ry="5" fill="url(#dbGradient)" filter="url(#glow)"/>
    <path d="M-10,-5 H10 M-10,0 H10 M-10,5 H10" stroke="#FFFFFF" stroke-width="2" stroke-linecap="round"/>
    <text x="0" y="30" font-family="Arial, sans-serif" font-size="12" fill="#FFFFFF" text-anchor="middle">Web Data</text>
  </g>
  
  <g transform="translate(80, 250)">
    <rect x="-20" y="-20" width="40" height="40" rx="5" ry="5" fill="url(#dbGradient)" filter="url(#glow)"/>
    <circle cx="0" cy="0" r="12" fill="none" stroke="#FFFFFF" stroke-width="2"/>
    <circle cx="0" cy="0" r="5" fill="#FFFFFF"/>
    <text x="0" y="30" font-family="Arial, sans-serif" font-size="12" fill="#FFFFFF" text-anchor="middle">CRM Data</text>
  </g>
  
  <g transform="translate(80, 350)">
    <rect x="-20" y="-20" width="40" height="40" rx="5" ry="5" fill="url(#dbGradient)" filter="url(#glow)"/>
    <path d="M-10,-10 L10,10 M-10,10 L10,-10" stroke="#FFFFFF" stroke-width="2" stroke-linecap="round"/>
    <text x="0" y="30" font-family="Arial, sans-serif" font-size="12" fill="#FFFFFF" text-anchor="middle">Social Data</text>
  </g>
  
  <!-- Output data destination icons -->
  <g transform="translate(720, 150)">
    <rect x="-20" y="-20" width="40" height="40" rx="5" ry="5" fill="url(#dbGradient)" filter="url(#glow)"/>
    <circle cx="-8" cy="-8" r="5" fill="#FFFFFF"/>
    <circle cx="8" cy="-8" r="5" fill="#FFFFFF"/>
    <path d="M-8,8 C-8,13 8,13 8,8" stroke="#FFFFFF" stroke-width="2" fill="none"/>
    <text x="0" y="30" font-family="Arial, sans-serif" font-size="12" fill="#FFFFFF" text-anchor="middle">Qualified Leads</text>
  </g>
  
  <g transform="translate(720, 250)">
    <rect x="-20" y="-20" width="40" height="40" rx="5" ry="5" fill="url(#dbGradient)" filter="url(#glow)"/>
    <path d="M-10,0 L0,-10 L10,0 L0,10 Z" fill="#FFFFFF"/>
    <text x="0" y="30" font-family="Arial, sans-serif" font-size="12" fill="#FFFFFF" text-anchor="middle">Target Lists</text>
  </g>
  
  <g transform="translate(720, 350)">
    <rect x="-20" y="-20" width="40" height="40" rx="5" ry="5" fill="url(#dbGradient)" filter="url(#glow)"/>
    <path d="M-10,-10 L10,-10 L10,10 L-10,10 Z" fill="none" stroke="#FFFFFF" stroke-width="2"/>
    <path d="M-5,-5 L5,-5 L5,5 L-5,5 Z" fill="#FFFFFF"/>
    <text x="0" y="30" font-family="Arial, sans-serif" font-size="12" fill="#FFFFFF" text-anchor="middle">Reports</text>
  </g>
  
  <!-- Data processing in middle -->
  <g transform="translate(400, 230)">
    <g filter="url(#glow)">
      <path d="M-100,0 L-100,20 L-30,20 L-30,-20 L-70,-20 Z" fill="#00F5FF" opacity="0.8"/>
      <path d="M30,0 L30,-20 L-30,-20 L-30,20 L70,20 Z" fill="#00F5FF" opacity="0.8"/>
      <path d="M30,0 L30,-20 L70,-20 L100,0 L100,20 L70,20 Z" fill="#00F5FF" opacity="0.8"/>
    </g>
    
    <text x="0" y="50" font-family="Arial, sans-serif" font-size="16" fill="#FFFFFF" text-anchor="middle">Data Processing Pipeline</text>
    
    <!-- Animated processing indicator -->
    <circle cx="-50" cy="0" r="5" fill="#FFFFFF" opacity="0.8">
      <animate attributeName="cx" values="-50;50;-50" dur="3s" repeatCount="indefinite"/>
    </circle>
  </g>
  
  <!-- Database illustration with title -->
  <g transform="translate(400, 400)">
    <text x="0" y="30" font-family="Arial, sans-serif" font-size="24" fill="#FFFFFF" text-anchor="middle" filter="url(#glow)">
      B2B Lead Database
    </text>
  </g>
</svg>