<?xml version="1.0" encoding="UTF-8"?>
<svg width="800" height="500" viewBox="0 0 800 500" xmlns="http://www.w3.org/2000/svg">
  <defs>
    <!-- Gradients -->
    <linearGradient id="researchGradient" x1="0%" y1="0%" x2="100%" y2="100%">
      <stop offset="0%" stop-color="#00F5FF" stop-opacity="0.8"/>
      <stop offset="100%" stop-color="#772CE8" stop-opacity="0.8"/>
    </linearGradient>
    
    <linearGradient id="chartGradient" x1="0%" y1="0%" x2="100%" y2="100%">
      <stop offset="0%" stop-color="#772CE8" stop-opacity="0.7"/>
      <stop offset="100%" stop-color="#00F5FF" stop-opacity="0.7"/>
    </linearGradient>
    
    <filter id="glow" x="-20%" y="-20%" width="140%" height="140%">
      <feGaussianBlur stdDeviation="5" result="blur"/>
      <feComposite in="SourceGraphic" in2="blur" operator="over"/>
    </filter>
  </defs>
  
  <!-- Background grid pattern -->
  <g opacity="0.1">
    <path d="M0 50 H800 M0 100 H800 M0 150 H800 M0 200 H800 M0 250 H800 M0 300 H800 M0 350 H800 M0 400 H800 M0 450 H800" stroke="#00F5FF" stroke-width="1"/>
    <path d="M50 0 V500 M100 0 V500 M150 0 V500 M200 0 V500 M250 0 V500 M300 0 V500 M350 0 V500 M400 0 V500 M450 0 V500 M500 0 V500 M550 0 V500 M600 0 V500 M650 0 V500 M700 0 V500 M750 0 V500" stroke="#00F5FF" stroke-width="1"/>
  </g>
  
  <!-- Main chart section in center -->
  <g transform="translate(400, 250)">
    <!-- Chart background -->
    <rect x="-200" y="-150" width="400" height="300" rx="15" fill="rgba(30, 30, 47, 0.5)" stroke="url(#researchGradient)" stroke-width="2" filter="url(#glow)"/>
    
    <!-- Chart axes -->
    <line x1="-170" y1="120" x2="170" y2="120" stroke="#FFFFFF" stroke-width="2"/>
    <line x1="-170" y1="120" x2="-170" y2="-120" stroke="#FFFFFF" stroke-width="2"/>
    
    <!-- Bar chart elements with animation -->
    <rect x="-150" y="50" width="40" height="70" fill="url(#chartGradient)" opacity="0.7">
      <animate attributeName="height" from="0" to="70" dur="1s" begin="0.1s" fill="freeze"/>
      <animate attributeName="y" from="120" to="50" dur="1s" begin="0.1s" fill="freeze"/>
    </rect>
    
    <rect x="-90" y="20" width="40" height="100" fill="url(#chartGradient)" opacity="0.7">
      <animate attributeName="height" from="0" to="100" dur="1s" begin="0.2s" fill="freeze"/>
      <animate attributeName="y" from="120" to="20" dur="1s" begin="0.2s" fill="freeze"/>
    </rect>
    
    <rect x="-30" y="-20" width="40" height="140" fill="url(#chartGradient)" opacity="0.7">
      <animate attributeName="height" from="0" to="140" dur="1s" begin="0.3s" fill="freeze"/>
      <animate attributeName="y" from="120" to="-20" dur="1s" begin="0.3s" fill="freeze"/>
    </rect>
    
    <rect x="30" y="-60" width="40" height="180" fill="url(#chartGradient)" opacity="0.7">
      <animate attributeName="height" from="0" to="180" dur="1s" begin="0.4s" fill="freeze"/>
      <animate attributeName="y" from="120" to="-60" dur="1s" begin="0.4s" fill="freeze"/>
    </rect>
    
    <rect x="90" y="-40" width="40" height="160" fill="url(#chartGradient)" opacity="0.7">
      <animate attributeName="height" from="0" to="160" dur="1s" begin="0.5s" fill="freeze"/>
      <animate attributeName="y" from="120" to="-40" dur="1s" begin="0.5s" fill="freeze"/>
    </rect>
    
    <rect x="150" y="0" width="40" height="120" fill="url(#chartGradient)" opacity="0.7">
      <animate attributeName="height" from="0" to="120" dur="1s" begin="0.6s" fill="freeze"/>
      <animate attributeName="y" from="120" to="0" dur="1s" begin="0.6s" fill="freeze"/>
    </rect>
    
    <!-- Line chart overlay -->
    <path d="M-150,70 L-90,40 L-30,0 L30,-40 L90,-20 L150,30" 
          fill="none" 
          stroke="url(#researchGradient)" 
          stroke-width="3" 
          stroke-linecap="round" 
          filter="url(#glow)"
          opacity="0">
      <animate attributeName="opacity" from="0" to="1" dur="1s" begin="0.7s" fill="freeze"/>
    </path>
    
    <!-- Data points on line chart -->
    <circle cx="-150" cy="70" r="5" fill="#00F5FF" opacity="0">
      <animate attributeName="opacity" from="0" to="1" dur="0.3s" begin="0.8s" fill="freeze"/>
    </circle>
    
    <circle cx="-90" cy="40" r="5" fill="#00F5FF" opacity="0">
      <animate attributeName="opacity" from="0" to="1" dur="0.3s" begin="0.9s" fill="freeze"/>
    </circle>
    
    <circle cx="-30" cy="0" r="5" fill="#00F5FF" opacity="0">
      <animate attributeName="opacity" from="0" to="1" dur="0.3s" begin="1.0s" fill="freeze"/>
    </circle>
    
    <circle cx="30" cy="-40" r="5" fill="#00F5FF" opacity="0">
      <animate attributeName="opacity" from="0" to="1" dur="0.3s" begin="1.1s" fill="freeze"/>
    </circle>
    
    <circle cx="90" cy="-20" r="5" fill="#00F5FF" opacity="0">
      <animate attributeName="opacity" from="0" to="1" dur="0.3s" begin="1.2s" fill="freeze"/>
    </circle>
    
    <circle cx="150" cy="30" r="5" fill="#00F5FF" opacity="0">
      <animate attributeName="opacity" from="0" to="1" dur="0.3s" begin="1.3s" fill="freeze"/>
    </circle>
    
    <!-- Axis labels -->
    <text x="0" y="140" font-family="Arial, sans-serif" font-size="12" fill="#FFFFFF" text-anchor="middle">Time Period</text>
    <text x="-190" y="0" font-family="Arial, sans-serif" font-size="12" fill="#FFFFFF" text-anchor="middle" transform="rotate(-90, -190, 0)">Market Growth</text>
  </g>
  
  <!-- Research elements surrounding the chart -->
  <g>
    <!-- Market segments pie chart -->
    <g transform="translate(150, 150)">
      <circle cx="0" cy="0" r="60" fill="rgba(30, 30, 47, 0.5)" stroke="url(#researchGradient)" stroke-width="1"/>
      
      <!-- Pie chart segments -->
      <path d="M0,0 L60,0 A60,60 0 0,1 30,52 Z" fill="url(#chartGradient)" opacity="0.7"/>
      <path d="M0,0 L30,52 A60,60 0 0,1 -30,52 Z" fill="#00F5FF" opacity="0.7"/>
      <path d="M0,0 L-30,52 A60,60 0 0,1 -60,0 Z" fill="url(#chartGradient)" opacity="0.7"/>
      <path d="M0,0 L-60,0 A60,60 0 0,1 0,-60 Z" fill="#00F5FF" opacity="0.7"/>
      <path d="M0,0 L0,-60 A60,60 0 0,1 60,0 Z" fill="url(#chartGradient)" opacity="0.7"/>
      
      <text x="0" y="80" font-family="Arial, sans-serif" font-size="14" fill="#FFFFFF" text-anchor="middle">Market Segments</text>
      
      <animateTransform 
        attributeName="transform" 
        type="rotate" 
        from="0 150 150" 
        to="360 150 150" 
        dur="60s" 
        repeatCount="indefinite" 
        additive="sum"/>
    </g>
    
    <!-- Target audience demographics -->
    <g transform="translate(650, 150)">
      <rect x="-70" y="-60" width="140" height="120" rx="10" fill="rgba(30, 30, 47, 0.5)" stroke="url(#researchGradient)" stroke-width="1"/>
      
      <!-- Demographics bar chart -->
      <line x1="-50" y1="40" x2="50" y2="40" stroke="#FFFFFF" stroke-width="1"/>
      
      <rect x="-45" y="10" width="10" height="30" fill="url(#chartGradient)" opacity="0.7">
        <animate attributeName="height" values="0;30;25;30" dur="3s" repeatCount="indefinite"/>
        <animate attributeName="y" values="40;10;15;10" dur="3s" repeatCount="indefinite"/>
      </rect>
      
      <rect x="-25" y="0" width="10" height="40" fill="url(#chartGradient)" opacity="0.7">
        <animate attributeName="height" values="0;40;35;40" dur="3s" repeatCount="indefinite" begin="0.5s"/>
        <animate attributeName="y" values="40;0;5;0" dur="3s" repeatCount="indefinite" begin="0.5s"/>
      </rect>
      
      <rect x="-5" y="20" width="10" height="20" fill="url(#chartGradient)" opacity="0.7">
        <animate attributeName="height" values="0;20;15;20" dur="3s" repeatCount="indefinite" begin="1s"/>
        <animate attributeName="y" values="40;20;25;20" dur="3s" repeatCount="indefinite" begin="1s"/>
      </rect>
      
      <rect x="15" y="5" width="10" height="35" fill="url(#chartGradient)" opacity="0.7">
        <animate attributeName="height" values="0;35;30;35" dur="3s" repeatCount="indefinite" begin="1.5s"/>
        <animate attributeName="y" values="40;5;10;5" dur="3s" repeatCount="indefinite" begin="1.5s"/>
      </rect>
      
      <rect x="35" y="15" width="10" height="25" fill="url(#chartGradient)" opacity="0.7">
        <animate attributeName="height" values="0;25;20;25" dur="3s" repeatCount="indefinite" begin="2s"/>
        <animate attributeName="y" values="40;15;20;15" dur="3s" repeatCount="indefinite" begin="2s"/>
      </rect>
      
      <text x="0" y="60" font-family="Arial, sans-serif" font-size="14" fill="#FFFFFF" text-anchor="middle">Demographics</text>
    </g>
    
    <!-- Trend analysis -->
    <g transform="translate(150, 350)">
      <rect x="-70" y="-60" width="140" height="120" rx="10" fill="rgba(30, 30, 47, 0.5)" stroke="url(#researchGradient)" stroke-width="1"/>
      
      <!-- Trend line chart -->
      <line x1="-50" y1="40" x2="50" y2="40" stroke="#FFFFFF" stroke-width="1"/>
      <line x1="-50" y1="40" x2="-50" y2="-40" stroke="#FFFFFF" stroke-width="1"/>
      
      <path d="M-50,20 C-30,-20 0,30 20,-10 S40,10 50,0" 
            fill="none" 
            stroke="url(#researchGradient)" 
            stroke-width="2"
            filter="url(#glow)">
            
        <animate attributeName="d" 
                 values="M-50,20 C-30,-20 0,30 20,-10 S40,10 50,0;
                         M-50,10 C-30,-30 0,20 20,-20 S40,0 50,-10;
                         M-50,20 C-30,-20 0,30 20,-10 S40,10 50,0" 
                 dur="10s" 
                 repeatCount="indefinite"/>
      </path>
      
      <text x="0" y="60" font-family="Arial, sans-serif" font-size="14" fill="#FFFFFF" text-anchor="middle">Trend Analysis</text>
    </g>
    
    <!-- Competitive analysis -->
    <g transform="translate(650, 350)">
      <rect x="-70" y="-60" width="140" height="120" rx="10" fill="rgba(30, 30, 47, 0.5)" stroke="url(#researchGradient)" stroke-width="1"/>
      
      <!-- Radar chart -->
      <polygon points="0,-40 35,20 -35,20" fill="none" stroke="#00F5FF" stroke-width="1" opacity="0.5"/>
      <polygon points="0,-30 26,15 -26,15" fill="url(#chartGradient)" opacity="0.3"/>
      
      <circle cx="0" cy="0" r="40" fill="none" stroke="#FFFFFF" stroke-width="0.5" opacity="0.5"/>
      <circle cx="0" cy="0" r="20" fill="none" stroke="#FFFFFF" stroke-width="0.5" opacity="0.5"/>
      
      <text x="0" y="60" font-family="Arial, sans-serif" font-size="14" fill="#FFFFFF" text-anchor="middle">Competitive Analysis</text>
      
      <animateTransform 
        attributeName="transform" 
        type="rotate" 
        from="0 0 0" 
        to="360 0 0" 
        dur="30s" 
        repeatCount="indefinite"
        additive="sum"/>
    </g>
  </g>
  
  <!-- Data flow animations -->
  <g>
    <!-- Flow from Market Segments to Main Chart -->
    <path d="M150,150 Q275,175 370,230" fill="none" stroke="#00F5FF" stroke-width="1" opacity="0.5"/>
    <circle cx="150" cy="150" r="3" fill="#00F5FF">
      <animate attributeName="cx" values="150;370" dur="2s" repeatCount="indefinite"/>
      <animate attributeName="cy" values="150;230" dur="2s" repeatCount="indefinite"/>
      <animate attributeName="opacity" values="1;0" dur="2s" repeatCount="indefinite"/>
    </circle>
    
    <!-- Flow from Demographics to Main Chart -->
    <path d="M650,150 Q525,175 430,230" fill="none" stroke="#00F5FF" stroke-width="1" opacity="0.5"/>
    <circle cx="650" cy="150" r="3" fill="#00F5FF">
      <animate attributeName="cx" values="650;430" dur="2.2s" repeatCount="indefinite"/>
      <animate attributeName="cy" values="150;230" dur="2.2s" repeatCount="indefinite"/>
      <animate attributeName="opacity" values="1;0" dur="2.2s" repeatCount="indefinite"/>
    </circle>
    
    <!-- Flow from Main Chart to Trend Analysis -->
    <path d="M370,270 Q325,310 150,350" fill="none" stroke="#00F5FF" stroke-width="1" opacity="0.5"/>
    <circle cx="370" cy="270" r="3" fill="#00F5FF">
      <animate attributeName="cx" values="370;150" dur="2.5s" repeatCount="indefinite"/>
      <animate attributeName="cy" values="270;350" dur="2.5s" repeatCount="indefinite"/>
      <animate attributeName="opacity" values="1;0" dur="2.5s" repeatCount="indefinite"/>
    </circle>
    
    <!-- Flow from Main Chart to Competitive Analysis -->
    <path d="M430,270 Q525,310 650,350" fill="none" stroke="#00F5FF" stroke-width="1" opacity="0.5"/>
    <circle cx="430" cy="270" r="3" fill="#00F5FF">
      <animate attributeName="cx" values="430;650" dur="2.3s" repeatCount="indefinite"/>
      <animate attributeName="cy" values="270;350" dur="2.3s" repeatCount="indefinite"/>
      <animate attributeName="opacity" values="1;0" dur="2.3s" repeatCount="indefinite"/>
    </circle>
  </g>
  
  <!-- Title -->
  <g transform="translate(400, 50)">
    <text x="0" y="0" font-family="Arial, sans-serif" font-size="28" fill="#FFFFFF" text-anchor="middle" filter="url(#glow)">
      Market Research Analysis
    </text>
  </g>
</svg>