<?xml version="1.0" encoding="UTF-8"?>
<svg width="800" height="500" viewBox="0 0 800 500" xmlns="http://www.w3.org/2000/svg">
  <defs>
    <!-- Gradients -->
    <linearGradient id="cleansingGradient" x1="0%" y1="0%" x2="100%" y2="100%">
      <stop offset="0%" stop-color="#00F5FF" stop-opacity="0.8"/>
      <stop offset="100%" stop-color="#772CE8" stop-opacity="0.8"/>
    </linearGradient>
    
    <linearGradient id="dataGradient" x1="0%" y1="0%" x2="100%" y2="100%">
      <stop offset="0%" stop-color="#772CE8" stop-opacity="0.7"/>
      <stop offset="100%" stop-color="#00F5FF" stop-opacity="0.7"/>
    </linearGradient>
    
    <filter id="glow" x="-20%" y="-20%" width="140%" height="140%">
      <feGaussianBlur stdDeviation="5" result="blur"/>
      <feComposite in="SourceGraphic" in2="blur" operator="over"/>
    </filter>
  </defs>
  
  <!-- Background grid pattern -->
  <g opacity="0.1">
    <path d="M0 50 H800 M0 100 H800 M0 150 H800 M0 200 H800 M0 250 H800 M0 300 H800 M0 350 H800 M0 400 H800 M0 450 H800" stroke="#00F5FF" stroke-width="1"/>
    <path d="M50 0 V500 M100 0 V500 M150 0 V500 M200 0 V500 M250 0 V500 M300 0 V500 M350 0 V500 M400 0 V500 M450 0 V500 M500 0 V500 M550 0 V500 M600 0 V500 M650 0 V500 M700 0 V500 M750 0 V500" stroke="#00F5FF" stroke-width="1"/>
  </g>
  
  <!-- Central data cleansing process -->
  <g transform="translate(400, 250)">
    <g filter="url(#glow)">
      <!-- Data cleansing circle -->
      <circle cx="0" cy="0" r="120" fill="none" stroke="url(#cleansingGradient)" stroke-width="4" opacity="0.7"/>
      
      <!-- Inner mechanism circles -->
      <circle cx="0" cy="0" r="80" fill="none" stroke="url(#cleansingGradient)" stroke-width="2" opacity="0.5">
        <animateTransform attributeName="transform" type="rotate" from="0 0 0" to="360 0 0" dur="60s" repeatCount="indefinite"/>
      </circle>
      
      <circle cx="0" cy="0" r="40" fill="none" stroke="url(#cleansingGradient)" stroke-width="2" opacity="0.5">
        <animateTransform attributeName="transform" type="rotate" from="0 0 0" to="-360 0 0" dur="30s" repeatCount="indefinite"/>
      </circle>
    </g>
  </g>
  
  <!-- Data flow system -->
  <g>
    <!-- Input dirty data - left side -->
    <g transform="translate(150, 250)">
      <rect x="-60" y="-60" width="120" height="120" rx="10" fill="url(#dataGradient)" filter="url(#glow)" opacity="0.7"/>
      
      <!-- Dirty data representation -->
      <line x1="-40" y1="-30" x2="40" y2="-30" stroke="#FFFFFF" stroke-width="2" stroke-dasharray="5,3"/>
      <line x1="-40" y1="-15" x2="20" y2="-15" stroke="#FFFFFF" stroke-width="2" stroke-dasharray="7,2"/>
      <line x1="-40" y1="0" x2="30" y2="0" stroke="#FFFFFF" stroke-width="2" stroke-dasharray="3,5"/>
      <line x1="-40" y1="15" x2="10" y2="15" stroke="#FFFFFF" stroke-width="2" stroke-dasharray="2,8"/>
      <line x1="-40" y1="30" x2="40" y2="30" stroke="#FFFFFF" stroke-width="2" stroke-dasharray="4,4"/>
      
      <text x="0" y="70" font-family="Arial, sans-serif" font-size="16" fill="#FFFFFF" text-anchor="middle">Raw Data</text>
    </g>
    
    <!-- Output clean data - right side -->
    <g transform="translate(650, 250)">
      <rect x="-60" y="-60" width="120" height="120" rx="10" fill="url(#dataGradient)" filter="url(#glow)" opacity="0.7"/>
      
      <!-- Clean data representation -->
      <line x1="-40" y1="-30" x2="40" y2="-30" stroke="#FFFFFF" stroke-width="2"/>
      <line x1="-40" y1="-15" x2="40" y2="-15" stroke="#FFFFFF" stroke-width="2"/>
      <line x1="-40" y1="0" x2="40" y2="0" stroke="#FFFFFF" stroke-width="2"/>
      <line x1="-40" y1="15" x2="40" y2="15" stroke="#FFFFFF" stroke-width="2"/>
      <line x1="-40" y1="30" x2="40" y2="30" stroke="#FFFFFF" stroke-width="2"/>
      
      <text x="0" y="70" font-family="Arial, sans-serif" font-size="16" fill="#FFFFFF" text-anchor="middle">Clean Data</text>
    </g>
    
    <!-- Data flow arrows -->
    <g>
      <!-- Flow from raw to cleansing -->
      <path d="M210,250 L280,250" fill="none" stroke="#00F5FF" stroke-width="3"/>
      <polygon points="280,250 270,245 270,255" fill="#00F5FF"/>
      
      <!-- Flow from cleansing to clean -->
      <path d="M520,250 L590,250" fill="none" stroke="#772CE8" stroke-width="3"/>
      <polygon points="590,250 580,245 580,255" fill="#772CE8"/>
    </g>
  </g>
  
  <!-- Cleaning process icons around the central circle -->
  <g>
    <!-- Data validation process -->
    <g transform="translate(400, 130)">
      <circle cx="0" cy="0" r="30" fill="url(#cleansingGradient)" filter="url(#glow)" opacity="0.7"/>
      <path d="M-15,-5 L-5,5 L15,-15" stroke="#FFFFFF" stroke-width="3" fill="none" stroke-linecap="round" stroke-linejoin="round"/>
      <text x="0" y="45" font-family="Arial, sans-serif" font-size="14" fill="#FFFFFF" text-anchor="middle">Validation</text>
    </g>
    
    <!-- Deduplication process -->
    <g transform="translate(520, 180)">
      <circle cx="0" cy="0" r="30" fill="url(#cleansingGradient)" filter="url(#glow)" opacity="0.7"/>
      <rect x="-15" y="-15" width="20" height="20" fill="none" stroke="#FFFFFF" stroke-width="2"/>
      <rect x="-5" y="-5" width="20" height="20" fill="none" stroke="#FFFFFF" stroke-width="2"/>
      <line x1="0" y1="-15" x2="15" y2="-15" stroke="#FFFFFF" stroke-width="2"/>
      <line x1="15" y1="-15" x2="15" y2="0" stroke="#FFFFFF" stroke-width="2"/>
      <text x="0" y="45" font-family="Arial, sans-serif" font-size="14" fill="#FFFFFF" text-anchor="middle">Deduplication</text>
    </g>
    
    <!-- Data formatting process -->
    <g transform="translate(520, 320)">
      <circle cx="0" cy="0" r="30" fill="url(#cleansingGradient)" filter="url(#glow)" opacity="0.7"/>
      <path d="M-15,-10 L15,-10 M-15,0 L5,0 M-15,10 L10,10" stroke="#FFFFFF" stroke-width="2" stroke-linecap="round"/>
      <text x="0" y="45" font-family="Arial, sans-serif" font-size="14" fill="#FFFFFF" text-anchor="middle">Formatting</text>
    </g>
    
    <!-- Data enrichment process -->
    <g transform="translate(400, 370)">
      <circle cx="0" cy="0" r="30" fill="url(#cleansingGradient)" filter="url(#glow)" opacity="0.7"/>
      <circle cx="-8" cy="0" r="12" fill="none" stroke="#FFFFFF" stroke-width="2"/>
      <circle cx="8" cy="0" r="12" fill="none" stroke="#FFFFFF" stroke-width="2"/>
      <path d="M0,-12 L0,12" stroke="#FFFFFF" stroke-width="2"/>
      <text x="0" y="45" font-family="Arial, sans-serif" font-size="14" fill="#FFFFFF" text-anchor="middle">Enrichment</text>
    </g>
    
    <!-- Data standardization process -->
    <g transform="translate(280, 320)">
      <circle cx="0" cy="0" r="30" fill="url(#cleansingGradient)" filter="url(#glow)" opacity="0.7"/>
      <rect x="-15" y="-15" width="30" height="30" fill="none" stroke="#FFFFFF" stroke-width="2"/>
      <line x1="-10" y1="-10" x2="10" y2="-10" stroke="#FFFFFF" stroke-width="2"/>
      <line x1="-10" y1="0" x2="10" y2="0" stroke="#FFFFFF" stroke-width="2"/>
      <line x1="-10" y1="10" x2="10" y2="10" stroke="#FFFFFF" stroke-width="2"/>
      <text x="0" y="45" font-family="Arial, sans-serif" font-size="14" fill="#FFFFFF" text-anchor="middle">Standardization</text>
    </g>
    
    <!-- Data normalization process -->
    <g transform="translate(280, 180)">
      <circle cx="0" cy="0" r="30" fill="url(#cleansingGradient)" filter="url(#glow)" opacity="0.7"/>
      <path d="M-15,10 C-15,-10 15,-10 15,10" fill="none" stroke="#FFFFFF" stroke-width="2"/>
      <text x="0" y="45" font-family="Arial, sans-serif" font-size="14" fill="#FFFFFF" text-anchor="middle">Normalization</text>
    </g>
  </g>
  
  <!-- Animated data particles in cleansing process -->
  <g>
    <circle cx="300" cy="250" r="3" fill="#00F5FF">
      <animate attributeName="cx" values="300;400;500" dur="3s" repeatCount="indefinite"/>
      <animate attributeName="cy" values="250;230;250" dur="3s" repeatCount="indefinite"/>
      <animate attributeName="opacity" values="1;0.5;1" dur="3s" repeatCount="indefinite"/>
    </circle>
    
    <circle cx="300" cy="250" r="3" fill="#00F5FF">
      <animate attributeName="cx" values="300;400;500" dur="2.5s" repeatCount="indefinite" begin="0.5s"/>
      <animate attributeName="cy" values="250;270;250" dur="2.5s" repeatCount="indefinite" begin="0.5s"/>
      <animate attributeName="opacity" values="1;0.5;1" dur="2.5s" repeatCount="indefinite" begin="0.5s"/>
    </circle>
    
    <circle cx="300" cy="250" r="3" fill="#00F5FF">
      <animate attributeName="cx" values="300;400;500" dur="3.5s" repeatCount="indefinite" begin="1s"/>
      <animate attributeName="cy" values="250;250;250" dur="3.5s" repeatCount="indefinite" begin="1s"/>
      <animate attributeName="opacity" values="1;0.5;1" dur="3.5s" repeatCount="indefinite" begin="1s"/>
    </circle>
  </g>
  
  <!-- Service title -->
  <g transform="translate(400, 50)">
    <text x="0" y="0" font-family="Arial, sans-serif" font-size="28" fill="#FFFFFF" text-anchor="middle" filter="url(#glow)">
      Data Cleansing Process
    </text>
  </g>
</svg>