<?xml version="1.0" encoding="UTF-8"?>
<svg width="400" height="400" viewBox="0 0 400 400" xmlns="http://www.w3.org/2000/svg">
  <defs>
    <!-- Gradients -->
    <linearGradient id="avatarGradient" x1="0%" y1="0%" x2="100%" y2="100%">
      <stop offset="0%" stop-color="#00F5FF" stop-opacity="0.8"/>
      <stop offset="100%" stop-color="#772CE8" stop-opacity="0.8"/>
    </linearGradient>
    
    <linearGradient id="bgGradient" x1="0%" y1="0%" x2="100%" y2="100%">
      <stop offset="0%" stop-color="#1E1E2F" stop-opacity="0.5"/>
      <stop offset="100%" stop-color="#0D1B2A" stop-opacity="0.7"/>
    </linearGradient>
    
    <filter id="glow" x="-20%" y="-20%" width="140%" height="140%">
      <feGaussianBlur stdDeviation="3" result="blur"/>
      <feComposite in="SourceGraphic" in2="blur" operator="over"/>
    </filter>
  </defs>
  
  <!-- Background -->
  <rect width="400" height="400" fill="url(#bgGradient)" rx="200" ry="200"/>
  
  <!-- Background grid pattern -->
  <g opacity="0.1">
    <path d="M0 100 H400 M0 200 H400 M0 300 H400" stroke="#00F5FF" stroke-width="1"/>
    <path d="M100 0 V400 M200 0 V400 M300 0 V400" stroke="#00F5FF" stroke-width="1"/>
  </g>
  
  <!-- Avatar base -->
  <circle cx="200" cy="200" r="150" fill="none" stroke="url(#avatarGradient)" stroke-width="2" filter="url(#glow)" opacity="0.7">
    <animate attributeName="opacity" values="0.7;0.9;0.7" dur="3s" repeatCount="indefinite"/>
  </circle>
  
  <!-- Tech elements -->
  <g>
    <!-- Circuitry patterns -->
    <path d="M100,150 L150,150 L150,200 L200,200 L200,250 L250,250 L250,300" fill="none" stroke="url(#avatarGradient)" stroke-width="1.5" stroke-linecap="round" stroke-dasharray="1,3">
      <animate attributeName="stroke-dashoffset" from="0" to="4" dur="1s" repeatCount="indefinite"/>
    </path>
    
    <path d="M300,150 L250,150 L250,200 L200,200 L200,250 L150,250 L150,300" fill="none" stroke="url(#avatarGradient)" stroke-width="1.5" stroke-linecap="round" stroke-dasharray="1,3">
      <animate attributeName="stroke-dashoffset" from="0" to="-4" dur="1s" repeatCount="indefinite"/>
    </path>
    
    <path d="M200,100 L200,200" fill="none" stroke="url(#avatarGradient)" stroke-width="1.5" stroke-linecap="round" stroke-dasharray="1,3">
      <animate attributeName="stroke-dashoffset" from="0" to="4" dur="1s" repeatCount="indefinite"/>
    </path>
    
    <!-- Connector nodes -->
    <circle cx="150" cy="150" r="4" fill="url(#avatarGradient)"/>
    <circle cx="150" cy="200" r="4" fill="url(#avatarGradient)"/>
    <circle cx="200" cy="200" r="4" fill="url(#avatarGradient)"/>
    <circle cx="200" cy="250" r="4" fill="url(#avatarGradient)"/>
    <circle cx="250" cy="250" r="4" fill="url(#avatarGradient)"/>
    <circle cx="250" cy="150" r="4" fill="url(#avatarGradient)"/>
    <circle cx="150" cy="250" r="4" fill="url(#avatarGradient)"/>
    <circle cx="200" cy="100" r="4" fill="url(#avatarGradient)"/>
  </g>
  
  <!-- Abstract figure -->
  <g transform="translate(200, 170)">
    <!-- Head -->
    <circle cx="0" cy="0" r="30" fill="url(#avatarGradient)" opacity="0.7" filter="url(#glow)"/>
    
    <!-- Shoulders and torso -->
    <path d="M-25,40 C-40,35 -50,60 -25,75 L-15,90 C-10,100 10,100 15,90 L25,75 C50,60 40,35 25,40 Z" fill="url(#avatarGradient)" opacity="0.5" filter="url(#glow)"/>
    
    <!-- Connection lines -->
    <path d="M-15,30 L-25,40 M15,30 L25,40" stroke="url(#avatarGradient)" stroke-width="2" opacity="0.8"/>
    
    <!-- Animated glow effect -->
    <circle cx="0" cy="0" r="33" fill="none" stroke="url(#avatarGradient)" stroke-width="2" opacity="0.5">
      <animate attributeName="r" values="33;38;33" dur="3s" repeatCount="indefinite"/>
      <animate attributeName="opacity" values="0.5;0.2;0.5" dur="3s" repeatCount="indefinite"/>
    </circle>
  </g>
  
  <!-- Orbiting data points -->
  <g>
    <circle cx="200" cy="70" r="5" fill="#00F5FF" opacity="0.8">
      <animateTransform attributeName="transform" type="rotate" from="0 200 200" to="360 200 200" dur="20s" repeatCount="indefinite"/>
    </circle>
    
    <circle cx="330" cy="200" r="5" fill="#772CE8" opacity="0.8">
      <animateTransform attributeName="transform" type="rotate" from="90 200 200" to="450 200 200" dur="20s" repeatCount="indefinite"/>
    </circle>
    
    <circle cx="200" cy="330" r="5" fill="#00F5FF" opacity="0.8">
      <animateTransform attributeName="transform" type="rotate" from="180 200 200" to="540 200 200" dur="20s" repeatCount="indefinite"/>
    </circle>
    
    <circle cx="70" cy="200" r="5" fill="#772CE8" opacity="0.8">
      <animateTransform attributeName="transform" type="rotate" from="270 200 200" to="630 200 200" dur="20s" repeatCount="indefinite"/>
    </circle>
  </g>
  
  <!-- Data flow path -->
  <path d="M70,70 C150,50 250,350 330,330" fill="none" stroke="url(#avatarGradient)" stroke-width="1" stroke-dasharray="5,5" opacity="0.5">
    <animate attributeName="stroke-dashoffset" from="0" to="20" dur="2s" repeatCount="indefinite"/>
  </path>
  
  <path d="M70,330 C150,350 250,50 330,70" fill="none" stroke="url(#avatarGradient)" stroke-width="1" stroke-dasharray="5,5" opacity="0.5">
    <animate attributeName="stroke-dashoffset" from="0" to="-20" dur="2s" repeatCount="indefinite"/>
  </path>
</svg>